HIERARCHY
ROOT Hips
{
	OFFSET 0.000000 0.000000 0.000000 
	CHANNELS 6 Xposition Yposition Zposition Zrotation Yrotation Xrotation
	JOINT LeftUpLeg
	{
		OFFSET 1.363060 -1.794630 0.839290 
		CHANNELS 3 Zrotation Yrotation Xrotation
		JOINT LeftLeg
		{
			OFFSET 2.448110 -6.726130 0.000000 
			CHANNELS 3 Zrotation Yrotation Xrotation
			JOINT LeftFoot
			{
				OFFSET 2.562200 -7.039590 0.000000 
				CHANNELS 3 Zrotation Yrotation Xrotation
				JOINT LeftToeBase
				{
					OFFSET 0.157640 -0.433110 2.322550 
					CHANNELS 3 Zrotation Yrotation Xrotation
					End Site
					{
						OFFSET 0.000000 0.000000 0.000000 
					}
				}
			}
		}
	}
	JOINT RightUpLeg
	{
		OFFSET -1.305520 -1.794630 0.839290 
		CHANNELS 3 Zrotation Yrotation Xrotation
		JOINT RightLeg
		{
			OFFSET -2.542530 -6.985550 0.000000 
			CHANNELS 3 Zrotation Yrotation Xrotation
			JOINT RightFoot
			{
				OFFSET -2.568260 -7.056230 0.000000 
				CHANNELS 3 Zrotation Yrotation Xrotation
				JOINT RightToeBase
				{
					OFFSET -0.164730 -0.452590 2.363150 
					CHANNELS 3 Zrotation Yrotation Xrotation
					End Site
					{
						OFFSET 0.000000 0.000000 0.000000 
					}
				}
			}
		}
	}
	JOINT Spine
	{
		OFFSET 0.028270 2.035590 -0.193380 
		CHANNELS 3 Zrotation Yrotation Xrotation
		JOINT Spine1
		{
			OFFSET 0.056720 2.048850 -0.042750 
			CHANNELS 3 Zrotation Yrotation Xrotation
			JOINT Neck1
			{
				OFFSET -0.054170 1.746240 0.172020 
				CHANNELS 3 Zrotation Yrotation Xrotation
				JOINT Head
				{
					OFFSET 0.104070 1.761360 -0.123970 
					CHANNELS 3 Zrotation Yrotation Xrotation
					End Site
					{
						OFFSET 0.000000 0.000000 0.000000 
					}
				}
			}
			JOINT LeftArm
			{
				OFFSET 3.362410 1.200890 -0.311210 
				CHANNELS 3 Zrotation Yrotation Xrotation
				JOINT LeftForeArm
				{
					OFFSET 4.983000 -0.000000 -0.000000 
					CHANNELS 3 Zrotation Yrotation Xrotation
					JOINT LeftHand
					{
						OFFSET 3.483560 -0.000000 -0.000000 
						CHANNELS 3 Zrotation Yrotation Xrotation
						JOINT LeftHandIndex1
						{
							OFFSET 0.715260 -0.000000 -0.000000 
							CHANNELS 3 Zrotation Yrotation Xrotation
							End Site
							{
								OFFSET 0.000000 0.000000 0.000000 
							}
						}
					}
				}
			}
			JOINT RightArm
			{
				OFFSET -3.136600 1.374050 -0.404650 
				CHANNELS 3 Zrotation Yrotation Xrotation
				JOINT RightForeArm
				{
					OFFSET -5.241900 -0.000000 -0.000000 
					CHANNELS 3 Zrotation Yrotation Xrotation
					JOINT RightHand
					{
						OFFSET -3.444170 -0.000000 -0.000000 
						CHANNELS 3 Zrotation Yrotation Xrotation
						JOINT RightHandIndex1
						{
							OFFSET -0.622530 -0.000000 -0.000000 
							CHANNELS 3 Zrotation Yrotation Xrotation
							End Site
							{
								OFFSET 0.000000 0.000000 0.000000 
							}
						}
					}
				}
			}
		}
	}
}
MOTION
Frames: 10
Frame Time: 0.041667
5.740191 17.657424 -3.094912 -1.198738 -12.753389 9.026157 -18.087018 -6.227292 -14.926543 0.429339 6.918279 18.285631 0.471401 -3.588558 -0.248411 -0.000000 -0.024200 -0.066500 14.451167 -9.221263 -8.817637 -0.800384 -6.702734 17.829977 5.919352 -26.154105 -17.517902 -0.151400 -2.507300 6.909900 1.643540 1.312595 -3.322876 3.831555 0.518140 -2.821995 16.933663 -27.600475 3.686328 7.327700 -13.895500 8.753100 -79.949097 5.506693 45.299297 107.430508 -56.378204 -69.816173 -1.071133 -0.164483 -60.846278 -7.125000 0.000000 0.000000 81.173247 27.692857 57.663869 -55.033543 57.131094 -24.916656 0.439341 1.682677 -20.430538 7.125000 0.000000 0.000000 
5.738903 17.657226 -3.091741 -1.164788 -12.677206 9.039730 -18.120009 -6.249239 -14.921473 0.426984 6.908421 18.260741 0.474989 -3.639977 -0.238114 -0.000000 -0.030200 -0.082900 14.426573 -9.297846 -8.862418 -0.804652 -6.716513 17.867246 5.914257 -26.138080 -17.516159 -0.148300 -2.481500 6.838200 1.635013 1.332020 -3.312681 3.874499 0.539255 -2.835531 16.872791 -27.618941 3.727270 7.282800 -13.896300 8.773900 -79.934868 5.494039 45.287607 107.450577 -56.378871 -69.835321 -1.052971 -0.156425 -60.850318 -7.125000 0.000000 0.000000 79.956152 26.693739 65.046828 -67.489582 60.062756 -32.668034 1.237400 -0.947094 -54.389716 7.125000 0.000000 0.000000 
5.736823 17.657821 -3.088471 -1.163502 -12.667936 9.058914 -18.116074 -6.243509 -14.924653 0.426268 6.905421 18.252508 0.477024 -3.664777 -0.242647 0.000000 -0.025500 -0.070100 14.424427 -9.309518 -8.892332 -0.808193 -6.728479 17.905245 5.894628 -26.082165 -17.552195 -0.151400 -2.507100 6.909300 1.635714 1.350219 -3.315698 3.893426 0.549350 -2.826499 16.875622 -27.630728 3.705062 7.289000 -13.906100 8.761300 -79.962028 5.503840 45.240528 107.404260 -56.390305 -69.789239 -1.052618 -0.153492 -60.800624 -7.125000 0.000000 0.000000 79.944804 26.683114 65.129937 -67.517071 60.069133 -32.682552 1.237281 -0.948928 -54.301507 7.125000 0.000000 0.000000 
5.735039 17.657821 -3.086292 -1.164080 -12.617224 9.078713 -18.108614 -6.230537 -14.946317 0.425433 6.901413 18.241355 0.482767 -3.737822 -0.226146 -0.000000 -0.009500 -0.026100 14.438183 -9.356128 -8.933978 -0.812756 -6.741708 17.944238 5.891683 -26.072505 -17.552489 -0.148400 -2.482300 6.840700 1.625351 1.363526 -3.309519 3.874530 0.554256 -2.806132 16.911115 -27.636193 3.650697 7.306800 -13.911300 8.737700 -79.930969 5.472316 45.179546 107.482864 -56.368498 -69.889826 -1.080003 -0.165446 -60.780064 -7.125000 0.000000 0.000000 80.053249 26.826209 64.744394 -66.565777 59.880698 -31.906509 1.178235 -0.774647 -51.484665 7.125000 0.000000 0.000000 
5.733057 17.658019 -3.083616 -1.157147 -12.573635 9.100112 -18.109319 -6.226772 -14.964335 0.424943 6.898760 18.234235 0.487267 -3.794870 -0.219591 0.000000 0.000700 0.002000 14.440858 -9.395601 -8.975320 -0.817109 -6.754555 17.982459 5.885219 -26.054023 -17.563518 -0.147200 -2.472600 6.813700 1.620283 1.377264 -3.304275 3.875951 0.561389 -2.787217 16.920445 -27.648365 3.615748 7.307100 -13.917200 8.723000 -79.922842 5.444117 45.102844 107.531445 -56.354021 -69.957654 -1.104135 -0.175178 -60.721424 -7.125000 0.000000 0.000000 79.979226 26.799574 65.230261 -67.460239 60.059140 -32.631928 1.226345 -0.956622 -53.761868 7.125000 0.000000 0.000000 
5.731076 17.658217 -3.080842 -1.152821 -12.530506 9.122725 -18.106500 -6.222232 -14.984100 0.424535 6.896654 18.228316 0.491800 -3.852130 -0.213438 0.000000 0.009900 0.027200 14.447324 -9.432353 -9.018504 -0.821755 -6.768565 18.024227 5.879411 -26.037941 -17.576010 -0.146100 -2.463500 6.788400 1.616009 1.389133 -3.298077 3.878632 0.566806 -2.760972 16.935182 -27.661073 3.576816 7.310500 -13.923600 8.708500 -79.918393 5.409814 45.014748 107.583070 -56.337851 -70.032157 -1.133277 -0.186360 -60.656080 -7.125000 0.000000 0.000000 79.988451 26.846368 65.291090 -67.446737 60.056422 -32.617260 1.219511 -0.962572 -53.535615 7.125000 0.000000 0.000000 
5.728995 17.658514 -3.077969 -1.148251 -12.487173 9.146208 -18.104074 -6.217429 -15.003212 0.423917 6.893790 18.220145 0.496215 -3.908654 -0.206041 0.000000 0.019900 0.054600 14.453983 -9.469819 -9.062236 -0.826499 -6.782385 18.065043 5.875755 -26.027439 -17.583395 -0.144400 -2.449100 6.748500 1.610804 1.403150 -3.288729 3.880376 0.573011 -2.726825 16.954274 -27.681732 3.540457 7.311700 -13.932100 8.700500 -79.909577 5.364661 44.933704 107.628949 -56.322902 -70.099858 -1.158968 -0.195638 -60.594408 -7.125000 0.000000 0.000000 79.999279 26.901127 65.345098 -67.430428 60.053040 -32.601599 1.213361 -0.968414 -53.327473 7.125000 0.000000 0.000000 
5.727013 17.658713 -3.074897 -1.144476 -12.444112 9.169614 -18.101108 -6.216351 -15.019640 0.423237 6.890981 18.212032 0.500079 -3.959102 -0.199845 -0.000000 0.028900 0.079400 14.460869 -9.507831 -9.105528 -0.831289 -6.796272 18.105834 5.872816 -26.018768 -17.587816 -0.142400 -2.431700 6.700200 1.605438 1.418413 -3.275631 3.882500 0.579400 -2.683146 16.975556 -27.711358 3.511948 7.308500 -13.942800 8.703200 -79.899781 5.308021 44.865436 107.655890 -56.312664 -70.144740 -1.177535 -0.201448 -60.545074 -7.125000 0.000000 0.000000 80.008737 26.970407 65.398004 -67.414886 60.049245 -32.587296 1.208657 -0.973935 -53.175697 7.125000 0.000000 0.000000 
5.725032 17.659010 -3.071826 -1.141843 -12.401236 9.192414 -18.097472 -6.218013 -15.033605 0.422428 6.888186 18.203608 0.503683 -4.005327 -0.194528 0.000000 0.036900 0.101400 14.468361 -9.549582 -9.149568 -0.836132 -6.810401 18.147017 5.869381 -26.007893 -17.587651 -0.140100 -2.412600 6.647300 1.599440 1.436078 -3.261580 3.882626 0.586902 -2.638269 17.003078 -27.745072 3.482842 7.307100 -13.955200 8.708700 -79.887558 5.249162 44.815508 107.666960 -56.306772 -70.169084 -1.189451 -0.204603 -60.508467 -7.125000 0.000000 0.000000 80.020138 27.043938 65.440207 -67.398515 60.045307 -32.573452 1.206654 -0.977416 -53.078110 7.125000 0.000000 0.000000 
5.723347 17.659208 -3.068754 -1.138587 -12.355134 9.215471 -18.094950 -6.227157 -15.045560 0.421644 6.885220 18.194914 0.506887 -4.046635 -0.189304 0.000000 0.042500 0.116800 14.474093 -9.594687 -9.194548 -0.840969 -6.824401 18.188428 5.865083 -25.993819 -17.587495 -0.138000 -2.394200 6.596300 1.591476 1.455213 -3.245876 3.877932 0.594675 -2.591080 17.030727 -27.787579 3.459415 7.301100 -13.970300 8.720900 -79.869501 5.186312 44.792644 107.659489 -56.306579 -70.166857 -1.188413 -0.201869 -60.501617 -7.125000 0.000000 0.000000 80.034415 27.125670 65.471203 -67.384421 60.041310 -32.562099 1.205410 -0.980308 -53.042024 7.125000 0.000000 0.000000 
